<svg xmlns="http://www.w3.org/2000/svg" viewBox="0 0 162.19 91.99"><defs><style>.a{opacity:0.3;}</style></defs><g class="a"><path d="M45.65,71a7,7,0,0,1-1.38,4.24q-1.38,1.88-5.05,1.88H3.83C1.24,77.11,0,75.4,0,72s1.31-5.15,3.83-5.15H32.59c.47,0,.75-.1.82-.31a2.48,2.48,0,0,0,.1-.71V50.9A27.33,27.33,0,0,1,19.84,44,24.12,24.12,0,0,1,11.78,25.7,23.94,23.94,0,0,1,19.84,7.5,28,28,0,0,1,39.63,0,27.6,27.6,0,0,1,59.21,7.55,24,24,0,0,1,67.27,25.7a24.21,24.21,0,0,1-8.06,18.16,27.5,27.5,0,0,1-13.56,7ZM55.34,25.7a14.48,14.48,0,0,0-4.7-11,15.95,15.95,0,0,0-22.08,0,14.57,14.57,0,0,0-4.64,11,14.58,14.58,0,0,0,4.64,11,15.95,15.95,0,0,0,22.08,0A14.49,14.49,0,0,0,55.34,25.7Z"/><path d="M81.55,57.43c-2.52,0-3.79-1.69-3.83-5s1.24-5.05,3.83-5.05h34.27V43.45a2.17,2.17,0,0,0-.1-.71c-.07-.21-.34-.31-.82-.31l-19.07.51q-3.67,0-5-2.14a8.16,8.16,0,0,1-1.38-4.49V23.77a7,7,0,0,1,1.38-4.24q1.38-1.87,5-1.88h41c.48,0,.75-.11.82-.31a2.17,2.17,0,0,0,.1-.71V13.57a2.24,2.24,0,0,0-.1-.72c-.07-.2-.34-.3-.82-.3H93.28c-2.52,0-3.79-1.69-3.83-5.05s1.24-5,3.83-5h50.18q3.67,0,5,1.63a6,6,0,0,1,1.38,4V21.62a7,7,0,0,1-1.38,4.24c-.92,1.26-2.6,1.88-5,1.88h-41c-.48,0-.75.11-.82.31a2.17,2.17,0,0,0-.1.71v3.06a2.24,2.24,0,0,0,.1.72c.07.2.34.3.82.3l19.07-.51q3.68-.09,5,1.84A7.21,7.21,0,0,1,128,38.45v8.88h30.19q4,0,3.93,5.05c0,3.36-1.35,5-3.93,5Zm74.66,28.15a7,7,0,0,1-1.38,4.23q-1.38,1.89-5.05,1.89H102q-3.68,0-5.06-1.89a7,7,0,0,1-1.38-4.23V67.52a7,7,0,0,1,1.38-4.23Q98.29,61.4,102,61.4h47.81q3.67,0,5.05,1.89a7,7,0,0,1,1.38,4.23ZM144.07,72.73A2.28,2.28,0,0,0,144,72q-.1-.3-.81-.3H108.68c-.48,0-.75.1-.82.3a2.61,2.61,0,0,0-.1.72v7.65a2.48,2.48,0,0,0,.1.71c.07.2.34.31.82.31h34.48c.47,0,.74-.11.81-.31a2.17,2.17,0,0,0,.1-.71ZM81.66,57.33q-3.78,0-3.82-5c0-3.36,1.24-5,3.82-5h34.27V43.36a2.17,2.17,0,0,0-.1-.71c-.07-.21-.34-.31-.82-.31l-19.07.51q-3.68,0-5-2.14a8.18,8.18,0,0,1-1.38-4.49V23.67a7,7,0,0,1,1.38-4.23q1.38-1.89,5-1.89h41c.48,0,.75-.1.82-.3a2.24,2.24,0,0,0,.1-.72V13.47a2.17,2.17,0,0,0-.1-.71c-.07-.2-.34-.31-.82-.31H93.39q-3.78,0-3.82-5c0-3.37,1.24-5.05,3.82-5.05h50.18c2.45,0,4.14.54,5.05,1.63A6,6,0,0,1,150,8V21.53a7,7,0,0,1-1.38,4.23c-.91,1.26-2.6,1.89-5.05,1.89h-41c-.48,0-.75.1-.82.31a2.48,2.48,0,0,0-.1.71v3.06a2.61,2.61,0,0,0,.1.72c.07.2.34.3.82.3l19.07-.51c2.45-.06,4.14.55,5,1.84a7.21,7.21,0,0,1,1.38,4.28v8.88h30.19q4,0,3.93,5c0,3.37-1.34,5-3.93,5Zm74.69,28.54A7,7,0,0,1,155,90.11Q153.59,92,149.92,92H102.11q-3.67,0-5.06-1.88a7,7,0,0,1-1.38-4.24V67.82a7,7,0,0,1,1.38-4.24q1.38-1.87,5.06-1.88h47.81q3.68,0,5.05,1.88a7,7,0,0,1,1.38,4.24ZM144.22,73a2.16,2.16,0,0,0-.11-.71c-.07-.21-.34-.31-.81-.31H108.82c-.48,0-.75.1-.81.31a2.16,2.16,0,0,0-.11.71v7.65a2.16,2.16,0,0,0,.11.71c.06.21.33.31.81.31H143.3c.47,0,.74-.1.81-.31a2.16,2.16,0,0,0,.11-.71Z"/><path d="M46,71.28a7,7,0,0,1-1.37,4.23q-1.38,1.89-5,1.89H4.2a3.63,3.63,0,0,1-2.29-.68c-1-.79-1.55-2.28-1.53-4.47,0-3.43,1.31-5.15,3.82-5.15H33c.47,0,.74-.1.81-.31a2.16,2.16,0,0,0,.11-.71V51.19a27.29,27.29,0,0,1-13.67-6.94A24.08,24.08,0,0,1,12.16,26a23.89,23.89,0,0,1,8.06-18.2A28,28,0,0,1,40,.29,27.6,27.6,0,0,1,59.59,7.84,24,24,0,0,1,67.65,26a24.21,24.21,0,0,1-8.06,18.16,27.57,27.57,0,0,1-13.57,7ZM55.71,26A14.48,14.48,0,0,0,51,15a15.95,15.95,0,0,0-22.08,0A14.54,14.54,0,0,0,24.3,26a14.54,14.54,0,0,0,4.64,11A15.44,15.44,0,0,0,40,41.39,15.5,15.5,0,0,0,51,37,14.48,14.48,0,0,0,55.71,26Z"/></g></svg>