<svg xmlns="http://www.w3.org/2000/svg" viewBox="0 0 370.56 407.62"><defs><style>.a{fill:#fff;}.b{font-size:36px;font-family:Dongle-Regular, Dongle;}</style></defs><rect class="a" x="174.06" y="117.62" width="39" height="85"/><path d="M470,379v84H432V379h38m1-1H431v86h40V378Z" transform="translate(-257.44 -260.88)"/><rect class="a" x="226.39" y="143.62" width="39" height="59"/><path d="M522.33,405v58h-38V405h38m1-1h-40v60h40V404Z" transform="translate(-257.44 -260.88)"/><rect class="a" x="278.72" y="163.62" width="39" height="39"/><path d="M574.67,425v38h-38V425h38m1-1h-40v40h40V424Z" transform="translate(-257.44 -260.88)"/><rect class="a" x="331.06" y="183.62" width="39" height="19"/><path d="M627,445v18H589V445h38m1-1H588v20h40V444Z" transform="translate(-257.44 -260.88)"/><rect class="a" x="174.06" y="117.62" width="39" height="85"/><path d="M470,379v84H432V379h38m1-1H431v86h40V378Z" transform="translate(-257.44 -260.88)"/><rect class="a" x="121.72" y="143.62" width="39" height="59"/><path d="M417.67,405v58h-38V405h38m1-1h-40v60h40V404Z" transform="translate(-257.44 -260.88)"/><rect class="a" x="69.39" y="163.62" width="39" height="39"/><path d="M365.33,425v38h-38V425h38m1-1h-40v40h40V424Z" transform="translate(-257.44 -260.88)"/><rect class="a" x="17.06" y="183.62" width="39" height="19"/><path d="M313,445v18H275V445h38m1-1H274v20h40V444Z" transform="translate(-257.44 -260.88)"/><text class="b" transform="translate(0 20.52)">오롬<tspan x="0" y="43.2">오롬</tspan></text><polyline class="a" points="62.06 407.62 62.06 388.62 103.06 388.62 103.06 367.62 141.06 367.62 141.06 347.62 182.06 347.62 182.06 321.62 220.06 321.62 220.06 297.62 255.06 297.62"/><polygon points="62.56 407.62 61.56 407.62 61.56 388.12 102.56 388.12 102.56 367.12 140.56 367.12 140.56 347.12 181.56 347.12 181.56 321.12 219.56 321.12 219.56 297.12 255.06 297.12 255.06 298.12 220.56 298.12 220.56 322.12 182.56 322.12 182.56 348.12 141.56 348.12 141.56 368.12 103.56 368.12 103.56 389.12 62.56 389.12 62.56 407.62"/></svg>